<svg viewBox="0 0 886 800" fill="none" xmlns="http://www.w3.org/2000/svg" data-v-d58ae3b9=""><!--[--><path data-index="1" style="--x: -285; --y: 5;" d="M211.29 -640L31.2938 -443.145C14.446 -424.719 5.10034 -400.658 5.09397 -375.691L5.00964 -45.3948C5.00342 -21.0424 -3.88896 2.471 -19.999 20.7333L-263.576 296.851C-279.692 315.12 -288.585 338.644 -288.585 363.005L-288.585 503.588C-288.585 528.239 -297.69 552.022 -314.153 570.371L-700 1000.41" data-v-d58ae3b9=""></path><path data-index="2" style="--x: -270; --y: 10;" d="M211.29 -640L31.2938 -443.145C14.446 -424.719 5.10034 -400.658 5.09397 -375.691L5.00964 -45.3948C5.00342 -21.0424 -3.88896 2.471 -19.999 20.7333L-263.576 296.851C-279.692 315.12 -288.585 338.644 -288.585 363.005L-288.585 503.588C-288.585 528.239 -297.69 552.022 -314.153 570.371L-700 1000.41" data-v-d58ae3b9=""></path><path data-index="3" style="--x: -255; --y: 15;" d="M211.29 -640L31.2938 -443.145C14.446 -424.719 5.10034 -400.658 5.09397 -375.691L5.00964 -45.3948C5.00342 -21.0424 -3.88896 2.471 -19.999 20.7333L-263.576 296.851C-279.692 315.12 -288.585 338.644 -288.585 363.005L-288.585 503.588C-288.585 528.239 -297.69 552.022 -314.153 570.371L-700 1000.41" data-v-d58ae3b9=""></path><path data-index="4" style="--x: -240; --y: 20;" d="M211.29 -640L31.2938 -443.145C14.446 -424.719 5.10034 -400.658 5.09397 -375.691L5.00964 -45.3948C5.00342 -21.0424 -3.88896 2.471 -19.999 20.7333L-263.576 296.851C-279.692 315.12 -288.585 338.644 -288.585 363.005L-288.585 503.588C-288.585 528.239 -297.69 552.022 -314.153 570.371L-700 1000.41" data-v-d58ae3b9=""></path><path data-index="5" style="--x: -225; --y: 25;" d="M211.29 -640L31.2938 -443.145C14.446 -424.719 5.10034 -400.658 5.09397 -375.691L5.00964 -45.3948C5.00342 -21.0424 -3.88896 2.471 -19.999 20.7333L-263.576 296.851C-279.692 315.12 -288.585 338.644 -288.585 363.005L-288.585 503.588C-288.585 528.239 -297.69 552.022 -314.153 570.371L-700 1000.41" data-v-d58ae3b9=""></path><path data-index="6" style="--x: -210; --y: 30;" d="M211.29 -640L31.2938 -443.145C14.446 -424.719 5.10034 -400.658 5.09397 -375.691L5.00964 -45.3948C5.00342 -21.0424 -3.88896 2.471 -19.999 20.7333L-263.576 296.851C-279.692 315.12 -288.585 338.644 -288.585 363.005L-288.585 503.588C-288.585 528.239 -297.69 552.022 -314.153 570.371L-700 1000.41" data-v-d58ae3b9=""></path><path data-index="7" style="--x: -195; --y: 35;" d="M211.29 -640L31.2938 -443.145C14.446 -424.719 5.10034 -400.658 5.09397 -375.691L5.00964 -45.3948C5.00342 -21.0424 -3.88896 2.471 -19.999 20.7333L-263.576 296.851C-279.692 315.12 -288.585 338.644 -288.585 363.005L-288.585 503.588C-288.585 528.239 -297.69 552.022 -314.153 570.371L-700 1000.41" data-v-d58ae3b9=""></path><path data-index="8" style="--x: -180; --y: 40;" d="M211.29 -640L31.2938 -443.145C14.446 -424.719 5.10034 -400.658 5.09397 -375.691L5.00964 -45.3948C5.00342 -21.0424 -3.88896 2.471 -19.999 20.7333L-263.576 296.851C-279.692 315.12 -288.585 338.644 -288.585 363.005L-288.585 503.588C-288.585 528.239 -297.69 552.022 -314.153 570.371L-700 1000.41" data-v-d58ae3b9=""></path><path data-index="9" style="--x: -165; --y: 45;" d="M211.29 -640L31.2938 -443.145C14.446 -424.719 5.10034 -400.658 5.09397 -375.691L5.00964 -45.3948C5.00342 -21.0424 -3.88896 2.471 -19.999 20.7333L-263.576 296.851C-279.692 315.12 -288.585 338.644 -288.585 363.005L-288.585 503.588C-288.585 528.239 -297.69 552.022 -314.153 570.371L-700 1000.41" data-v-d58ae3b9="" class=""></path><path data-index="10" style="--x: -150; --y: 50;" d="M211.29 -640L31.2938 -443.145C14.446 -424.719 5.10034 -400.658 5.09397 -375.691L5.00964 -45.3948C5.00342 -21.0424 -3.88896 2.471 -19.999 20.7333L-263.576 296.851C-279.692 315.12 -288.585 338.644 -288.585 363.005L-288.585 503.588C-288.585 528.239 -297.69 552.022 -314.153 570.371L-700 1000.41" data-v-d58ae3b9=""></path><path data-index="11" style="--x: -135;--y: 55;background: red;" d="M211.29 -640L31.2938 -443.145C14.446 -424.719 5.10034 -400.658 5.09397 -375.691L5.00964 -45.3948C5.00342 -21.0424 -3.88896 2.471 -19.999 20.7333L-263.576 296.851C-279.692 315.12 -288.585 338.644 -288.585 363.005L-288.585 503.588C-288.585 528.239 -297.69 552.022 -314.153 570.371L-700 1000.41" data-v-d58ae3b9=""></path><path data-index="12" style="--x: -120; --y: 60;" d="M211.29 -640L31.2938 -443.145C14.446 -424.719 5.10034 -400.658 5.09397 -375.691L5.00964 -45.3948C5.00342 -21.0424 -3.88896 2.471 -19.999 20.7333L-263.576 296.851C-279.692 315.12 -288.585 338.644 -288.585 363.005L-288.585 503.588C-288.585 528.239 -297.69 552.022 -314.153 570.371L-700 1000.41" data-v-d58ae3b9=""></path><path data-index="13" style="--x: -105; --y: 65;" d="M211.29 -640L31.2938 -443.145C14.446 -424.719 5.10034 -400.658 5.09397 -375.691L5.00964 -45.3948C5.00342 -21.0424 -3.88896 2.471 -19.999 20.7333L-263.576 296.851C-279.692 315.12 -288.585 338.644 -288.585 363.005L-288.585 503.588C-288.585 528.239 -297.69 552.022 -314.153 570.371L-700 1000.41" data-v-d58ae3b9=""></path><path data-index="14" style="--x: -90; --y: 70;" d="M211.29 -640L31.2938 -443.145C14.446 -424.719 5.10034 -400.658 5.09397 -375.691L5.00964 -45.3948C5.00342 -21.0424 -3.88896 2.471 -19.999 20.7333L-263.576 296.851C-279.692 315.12 -288.585 338.644 -288.585 363.005L-288.585 503.588C-288.585 528.239 -297.69 552.022 -314.153 570.371L-700 1000.41" data-v-d58ae3b9=""></path><path data-index="15" style="--x: -75; --y: 75;" d="M211.29 -640L31.2938 -443.145C14.446 -424.719 5.10034 -400.658 5.09397 -375.691L5.00964 -45.3948C5.00342 -21.0424 -3.88896 2.471 -19.999 20.7333L-263.576 296.851C-279.692 315.12 -288.585 338.644 -288.585 363.005L-288.585 503.588C-288.585 528.239 -297.69 552.022 -314.153 570.371L-700 1000.41" data-v-d58ae3b9=""></path><path data-index="16" style="--x: -60; --y: 80;" d="M211.29 -640L31.2938 -443.145C14.446 -424.719 5.10034 -400.658 5.09397 -375.691L5.00964 -45.3948C5.00342 -21.0424 -3.88896 2.471 -19.999 20.7333L-263.576 296.851C-279.692 315.12 -288.585 338.644 -288.585 363.005L-288.585 503.588C-288.585 528.239 -297.69 552.022 -314.153 570.371L-700 1000.41" data-v-d58ae3b9=""></path><path data-index="17" style="--x: -45; --y: 85;" d="M211.29 -640L31.2938 -443.145C14.446 -424.719 5.10034 -400.658 5.09397 -375.691L5.00964 -45.3948C5.00342 -21.0424 -3.88896 2.471 -19.999 20.7333L-263.576 296.851C-279.692 315.12 -288.585 338.644 -288.585 363.005L-288.585 503.588C-288.585 528.239 -297.69 552.022 -314.153 570.371L-700 1000.41" data-v-d58ae3b9=""></path><path data-index="18" style="--x: -30; --y: 90;" d="M211.29 -640L31.2938 -443.145C14.446 -424.719 5.10034 -400.658 5.09397 -375.691L5.00964 -45.3948C5.00342 -21.0424 -3.88896 2.471 -19.999 20.7333L-263.576 296.851C-279.692 315.12 -288.585 338.644 -288.585 363.005L-288.585 503.588C-288.585 528.239 -297.69 552.022 -314.153 570.371L-700 1000.41" data-v-d58ae3b9=""></path><path data-index="19" style="--x: -15; --y: 95;" d="M211.29 -640L31.2938 -443.145C14.446 -424.719 5.10034 -400.658 5.09397 -375.691L5.00964 -45.3948C5.00342 -21.0424 -3.88896 2.471 -19.999 20.7333L-263.576 296.851C-279.692 315.12 -288.585 338.644 -288.585 363.005L-288.585 503.588C-288.585 528.239 -297.69 552.022 -314.153 570.371L-700 1000.41" data-v-d58ae3b9=""></path><path data-index="20" style="--x: 0; --y: 100;" d="M211.29 -640L31.2938 -443.145C14.446 -424.719 5.10034 -400.658 5.09397 -375.691L5.00964 -45.3948C5.00342 -21.0424 -3.88896 2.471 -19.999 20.7333L-263.576 296.851C-279.692 315.12 -288.585 338.644 -288.585 363.005L-288.585 503.588C-288.585 528.239 -297.69 552.022 -314.153 570.371L-700 1000.41" data-v-d58ae3b9=""></path><path data-v-d58ae3b9="" data-index="21" d="M211.29 -640L31.2938 -443.145C14.446 -424.719 5.10034 -400.658 5.09397 -375.691L5.00964 -45.3948C5.00342 -21.0424 -3.88896 2.471 -19.999 20.7333L-263.576 296.851C-279.692 315.12 -288.585 338.644 -288.585 363.005L-288.585 503.588C-288.585 528.239 -297.69 552.022 -314.153 570.371L-700 1000.41" style="--x: 15; --y: 105;"></path><path data-v-d58ae3b9="" data-index="22" d="M211.29 -640L31.2938 -443.145C14.446 -424.719 5.10034 -400.658 5.09397 -375.691L5.00964 -45.3948C5.00342 -21.0424 -3.88896 2.471 -19.999 20.7333L-263.576 296.851C-279.692 315.12 -288.585 338.644 -288.585 363.005L-288.585 503.588C-288.585 528.239 -297.69 552.022 -314.153 570.371L-700 1000.41" style="--x: 30; --y: 110;"></path><path data-v-d58ae3b9="" data-index="23" d="M211.29 -640L31.2938 -443.145C14.446 -424.719 5.10034 -400.658 5.09397 -375.691L5.00964 -45.3948C5.00342 -21.0424 -3.88896 2.471 -19.999 20.7333L-263.576 296.851C-279.692 315.12 -288.585 338.644 -288.585 363.005L-288.585 503.588C-288.585 528.239 -297.69 552.022 -314.153 570.371L-700 1000.41" style="--x: 45; --y: 115;"></path><path data-v-d58ae3b9="" data-index="24" d="M211.29 -640L31.2938 -443.145C14.446 -424.719 5.10034 -400.658 5.09397 -375.691L5.00964 -45.3948C5.00342 -21.0424 -3.88896 2.471 -19.999 20.7333L-263.576 296.851C-279.692 315.12 -288.585 338.644 -288.585 363.005L-288.585 503.588C-288.585 528.239 -297.69 552.022 -314.153 570.371L-700 1000.41" style="--x: 60; --y: 120;"></path><path data-v-d58ae3b9="" data-index="25" d="M211.29 -640L31.2938 -443.145C14.446 -424.719 5.10034 -400.658 5.09397 -375.691L5.00964 -45.3948C5.00342 -21.0424 -3.88896 2.471 -19.999 20.7333L-263.576 296.851C-279.692 315.12 -288.585 338.644 -288.585 363.005L-288.585 503.588C-288.585 528.239 -297.69 552.022 -314.153 570.371L-700 1000.41" style="--x: 75; --y: 125;"></path><path data-v-d58ae3b9="" data-index="26" d="M211.29 -640L31.2938 -443.145C14.446 -424.719 5.10034 -400.658 5.09397 -375.691L5.00964 -45.3948C5.00342 -21.0424 -3.88896 2.471 -19.999 20.7333L-263.576 296.851C-279.692 315.12 -288.585 338.644 -288.585 363.005L-288.585 503.588C-288.585 528.239 -297.69 552.022 -314.153 570.371L-700 1000.41" style="--x: 90; --y: 130;"></path><path data-v-d58ae3b9="" data-index="27" d="M211.29 -640L31.2938 -443.145C14.446 -424.719 5.10034 -400.658 5.09397 -375.691L5.00964 -45.3948C5.00342 -21.0424 -3.88896 2.471 -19.999 20.7333L-263.576 296.851C-279.692 315.12 -288.585 338.644 -288.585 363.005L-288.585 503.588C-288.585 528.239 -297.69 552.022 -314.153 570.371L-700 1000.41" style="--x: 105; --y: 135;" class=""></path><path data-v-d58ae3b9="" data-index="28" d="M211.29 -640L31.2938 -443.145C14.446 -424.719 5.10034 -400.658 5.09397 -375.691L5.00964 -45.3948C5.00342 -21.0424 -3.88896 2.471 -19.999 20.7333L-263.576 296.851C-279.692 315.12 -288.585 338.644 -288.585 363.005L-288.585 503.588C-288.585 528.239 -297.69 552.022 -314.153 570.371L-700 1000.41" style="--x: 120; --y: 140;"></path><path data-v-d58ae3b9="" data-index="29" d="M211.29 -640L31.2938 -443.145C14.446 -424.719 5.10034 -400.658 5.09397 -375.691L5.00964 -45.3948C5.00342 -21.0424 -3.88896 2.471 -19.999 20.7333L-263.576 296.851C-279.692 315.12 -288.585 338.644 -288.585 363.005L-288.585 503.588C-288.585 528.239 -297.69 552.022 -314.153 570.371L-700 1000.41" style="--x: 135; --y: 145;"></path><path data-v-d58ae3b9="" data-index="30" d="M211.29 -640L31.2938 -443.145C14.446 -424.719 5.10034 -400.658 5.09397 -375.691L5.00964 -45.3948C5.00342 -21.0424 -3.88896 2.471 -19.999 20.7333L-263.576 296.851C-279.692 315.12 -288.585 338.644 -288.585 363.005L-288.585 503.588C-288.585 528.239 -297.69 552.022 -314.153 570.371L-700 1000.41" style="--x: 150; --y: 150;"></path><path data-v-d58ae3b9="" data-index="31" d="M211.29 -640L31.2938 -443.145C14.446 -424.719 5.10034 -400.658 5.09397 -375.691L5.00964 -45.3948C5.00342 -21.0424 -3.88896 2.471 -19.999 20.7333L-263.576 296.851C-279.692 315.12 -288.585 338.644 -288.585 363.005L-288.585 503.588C-288.585 528.239 -297.69 552.022 -314.153 570.371L-700 1000.41" style="--x: 165; --y: 155;"></path><path data-v-d58ae3b9="" data-index="32" d="M211.29 -640L31.2938 -443.145C14.446 -424.719 5.10034 -400.658 5.09397 -375.691L5.00964 -45.3948C5.00342 -21.0424 -3.88896 2.471 -19.999 20.7333L-263.576 296.851C-279.692 315.12 -288.585 338.644 -288.585 363.005L-288.585 503.588C-288.585 528.239 -297.69 552.022 -314.153 570.371L-700 1000.41" style="--x: 180;stroke: red;--y: 160;"></path><path data-v-d58ae3b9="" data-index="33" d="M211.29 -640L31.2938 -443.145C14.446 -424.719 5.10034 -400.658 5.09397 -375.691L5.00964 -45.3948C5.00342 -21.0424 -3.88896 2.471 -19.999 20.7333L-263.576 296.851C-279.692 315.12 -288.585 338.644 -288.585 363.005L-288.585 503.588C-288.585 528.239 -297.69 552.022 -314.153 570.371L-700 1000.41" style="--x: 195; --y: 165;"></path><path data-v-d58ae3b9="" data-index="34" d="M211.29 -640L31.2938 -443.145C14.446 -424.719 5.10034 -400.658 5.09397 -375.691L5.00964 -45.3948C5.00342 -21.0424 -3.88896 2.471 -19.999 20.7333L-263.576 296.851C-279.692 315.12 -288.585 338.644 -288.585 363.005L-288.585 503.588C-288.585 528.239 -297.69 552.022 -314.153 570.371L-700 1000.41" style="--x: 210; --y: 170;"></path><path data-v-d58ae3b9="" data-index="35" d="M211.29 -640L31.2938 -443.145C14.446 -424.719 5.10034 -400.658 5.09397 -375.691L5.00964 -45.3948C5.00342 -21.0424 -3.88896 2.471 -19.999 20.7333L-263.576 296.851C-279.692 315.12 -288.585 338.644 -288.585 363.005L-288.585 503.588C-288.585 528.239 -297.69 552.022 -314.153 570.371L-700 1000.41" style="--x: 225; --y: 175;"></path><path data-v-d58ae3b9="" data-index="36" d="M211.29 -640L31.2938 -443.145C14.446 -424.719 5.10034 -400.658 5.09397 -375.691L5.00964 -45.3948C5.00342 -21.0424 -3.88896 2.471 -19.999 20.7333L-263.576 296.851C-279.692 315.12 -288.585 338.644 -288.585 363.005L-288.585 503.588C-288.585 528.239 -297.69 552.022 -314.153 570.371L-700 1000.41" style="--x: 240; --y: 180;"></path><path data-v-d58ae3b9="" data-index="37" d="M211.29 -640L31.2938 -443.145C14.446 -424.719 5.10034 -400.658 5.09397 -375.691L5.00964 -45.3948C5.00342 -21.0424 -3.88896 2.471 -19.999 20.7333L-263.576 296.851C-279.692 315.12 -288.585 338.644 -288.585 363.005L-288.585 503.588C-288.585 528.239 -297.69 552.022 -314.153 570.371L-700 1000.41" style="--x: 255; --y: 185;"></path><path data-v-d58ae3b9="" data-index="38" d="M211.29 -640L31.2938 -443.145C14.446 -424.719 5.10034 -400.658 5.09397 -375.691L5.00964 -45.3948C5.00342 -21.0424 -3.88896 2.471 -19.999 20.7333L-263.576 296.851C-279.692 315.12 -288.585 338.644 -288.585 363.005L-288.585 503.588C-288.585 528.239 -297.69 552.022 -314.153 570.371L-700 1000.41" style="--x: 270; --y: 190;"></path><path data-v-d58ae3b9="" data-index="39" d="M211.29 -640L31.2938 -443.145C14.446 -424.719 5.10034 -400.658 5.09397 -375.691L5.00964 -45.3948C5.00342 -21.0424 -3.88896 2.471 -19.999 20.7333L-263.576 296.851C-279.692 315.12 -288.585 338.644 -288.585 363.005L-288.585 503.588C-288.585 528.239 -297.69 552.022 -314.153 570.371L-700 1000.41" style="--x: 285; --y: 195;"></path><path data-v-d58ae3b9="" data-index="40" d="M211.29 -640L31.2938 -443.145C14.446 -424.719 5.10034 -400.658 5.09397 -375.691L5.00964 -45.3948C5.00342 -21.0424 -3.88896 2.471 -19.999 20.7333L-263.576 296.851C-279.692 315.12 -288.585 338.644 -288.585 363.005L-288.585 503.588C-288.585 528.239 -297.69 552.022 -314.153 570.371L-700 1000.41" style="--x: 300; --y: 200;" class=""></path><path data-v-d58ae3b9="" data-index="41" d="M211.29 -640L31.2938 -443.145C14.446 -424.719 5.10034 -400.658 5.09397 -375.691L5.00964 -45.3948C5.00342 -21.0424 -3.88896 2.471 -19.999 20.7333L-263.576 296.851C-279.692 315.12 -288.585 338.644 -288.585 363.005L-288.585 503.588C-288.585 528.239 -297.69 552.022 -314.153 570.371L-700 1000.41" style="--x: 315; --y: 205;"></path><path data-v-d58ae3b9="" data-index="42" d="M211.29 -640L31.2938 -443.145C14.446 -424.719 5.10034 -400.658 5.09397 -375.691L5.00964 -45.3948C5.00342 -21.0424 -3.88896 2.471 -19.999 20.7333L-263.576 296.851C-279.692 315.12 -288.585 338.644 -288.585 363.005L-288.585 503.588C-288.585 528.239 -297.69 552.022 -314.153 570.371L-700 1000.41" style="--x: 330; --y: 210;"></path><path data-v-d58ae3b9="" data-index="43" d="M211.29 -640L31.2938 -443.145C14.446 -424.719 5.10034 -400.658 5.09397 -375.691L5.00964 -45.3948C5.00342 -21.0424 -3.88896 2.471 -19.999 20.7333L-263.576 296.851C-279.692 315.12 -288.585 338.644 -288.585 363.005L-288.585 503.588C-288.585 528.239 -297.69 552.022 -314.153 570.371L-700 1000.41" style="--x: 345; --y: 215;"></path><path data-v-d58ae3b9="" data-index="44" d="M211.29 -640L31.2938 -443.145C14.446 -424.719 5.10034 -400.658 5.09397 -375.691L5.00964 -45.3948C5.00342 -21.0424 -3.88896 2.471 -19.999 20.7333L-263.576 296.851C-279.692 315.12 -288.585 338.644 -288.585 363.005L-288.585 503.588C-288.585 528.239 -297.69 552.022 -314.153 570.371L-700 1000.41" style="--x: 360; --y: 220;"></path><path data-v-d58ae3b9="" data-index="45" d="M211.29 -640L31.2938 -443.145C14.446 -424.719 5.10034 -400.658 5.09397 -375.691L5.00964 -45.3948C5.00342 -21.0424 -3.88896 2.471 -19.999 20.7333L-263.576 296.851C-279.692 315.12 -288.585 338.644 -288.585 363.005L-288.585 503.588C-288.585 528.239 -297.69 552.022 -314.153 570.371L-700 1000.41" style="--x: 375; --y: 225;"></path><path data-v-d58ae3b9="" data-index="46" d="M211.29 -640L31.2938 -443.145C14.446 -424.719 5.10034 -400.658 5.09397 -375.691L5.00964 -45.3948C5.00342 -21.0424 -3.88896 2.471 -19.999 20.7333L-263.576 296.851C-279.692 315.12 -288.585 338.644 -288.585 363.005L-288.585 503.588C-288.585 528.239 -297.69 552.022 -314.153 570.371L-700 1000.41" style="--x: 390; --y: 230;"></path><path data-v-d58ae3b9="" data-index="47" d="M211.29 -640L31.2938 -443.145C14.446 -424.719 5.10034 -400.658 5.09397 -375.691L5.00964 -45.3948C5.00342 -21.0424 -3.88896 2.471 -19.999 20.7333L-263.576 296.851C-279.692 315.12 -288.585 338.644 -288.585 363.005L-288.585 503.588C-288.585 528.239 -297.69 552.022 -314.153 570.371L-700 1000.41" style="--x: 405; --y: 235;"></path><path data-v-d58ae3b9="" data-index="48" d="M211.29 -640L31.2938 -443.145C14.446 -424.719 5.10034 -400.658 5.09397 -375.691L5.00964 -45.3948C5.00342 -21.0424 -3.88896 2.471 -19.999 20.7333L-263.576 296.851C-279.692 315.12 -288.585 338.644 -288.585 363.005L-288.585 503.588C-288.585 528.239 -297.69 552.022 -314.153 570.371L-700 1000.41" style="--x: 420; --y: 240;"></path><path data-v-d58ae3b9="" data-index="49" d="M211.29 -640L31.2938 -443.145C14.446 -424.719 5.10034 -400.658 5.09397 -375.691L5.00964 -45.3948C5.00342 -21.0424 -3.88896 2.471 -19.999 20.7333L-263.576 296.851C-279.692 315.12 -288.585 338.644 -288.585 363.005L-288.585 503.588C-288.585 528.239 -297.69 552.022 -314.153 570.371L-700 1000.41" style="--x: 435; --y: 245;" class=""></path><path data-v-d58ae3b9="" data-index="50" d="M211.29 -640L31.2938 -443.145C14.446 -424.719 5.10034 -400.658 5.09397 -375.691L5.00964 -45.3948C5.00342 -21.0424 -3.88896 2.471 -19.999 20.7333L-263.576 296.851C-279.692 315.12 -288.585 338.644 -288.585 363.005L-288.585 503.588C-288.585 528.239 -297.69 552.022 -314.153 570.371L-700 1000.41" style="--x: 450; --y: 250;" class=""></path><path data-v-d58ae3b9="" data-index="51" d="M211.29 -640L31.2938 -443.145C14.446 -424.719 5.10034 -400.658 5.09397 -375.691L5.00964 -45.3948C5.00342 -21.0424 -3.88896 2.471 -19.999 20.7333L-263.576 296.851C-279.692 315.12 -288.585 338.644 -288.585 363.005L-288.585 503.588C-288.585 528.239 -297.69 552.022 -314.153 570.371L-700 1000.41" style="--x: 465; --y: 255;"></path><path data-v-d58ae3b9="" data-index="52" d="M211.29 -640L31.2938 -443.145C14.446 -424.719 5.10034 -400.658 5.09397 -375.691L5.00964 -45.3948C5.00342 -21.0424 -3.88896 2.471 -19.999 20.7333L-263.576 296.851C-279.692 315.12 -288.585 338.644 -288.585 363.005L-288.585 503.588C-288.585 528.239 -297.69 552.022 -314.153 570.371L-700 1000.41" style="--x: 480; --y: 260;"></path><path data-v-d58ae3b9="" data-index="53" d="M211.29 -640L31.2938 -443.145C14.446 -424.719 5.10034 -400.658 5.09397 -375.691L5.00964 -45.3948C5.00342 -21.0424 -3.88896 2.471 -19.999 20.7333L-263.576 296.851C-279.692 315.12 -288.585 338.644 -288.585 363.005L-288.585 503.588C-288.585 528.239 -297.69 552.022 -314.153 570.371L-700 1000.41" style="--x: 495; --y: 265;"></path><path data-v-d58ae3b9="" data-index="54" d="M211.29 -640L31.2938 -443.145C14.446 -424.719 5.10034 -400.658 5.09397 -375.691L5.00964 -45.3948C5.00342 -21.0424 -3.88896 2.471 -19.999 20.7333L-263.576 296.851C-279.692 315.12 -288.585 338.644 -288.585 363.005L-288.585 503.588C-288.585 528.239 -297.69 552.022 -314.153 570.371L-700 1000.41" style="--x: 510; --y: 270;"></path><path data-v-d58ae3b9="" data-index="55" d="M211.29 -640L31.2938 -443.145C14.446 -424.719 5.10034 -400.658 5.09397 -375.691L5.00964 -45.3948C5.00342 -21.0424 -3.88896 2.471 -19.999 20.7333L-263.576 296.851C-279.692 315.12 -288.585 338.644 -288.585 363.005L-288.585 503.588C-288.585 528.239 -297.69 552.022 -314.153 570.371L-700 1000.41" style="--x: 525; --y: 275;"></path><path data-v-d58ae3b9="" data-index="56" d="M211.29 -640L31.2938 -443.145C14.446 -424.719 5.10034 -400.658 5.09397 -375.691L5.00964 -45.3948C5.00342 -21.0424 -3.88896 2.471 -19.999 20.7333L-263.576 296.851C-279.692 315.12 -288.585 338.644 -288.585 363.005L-288.585 503.588C-288.585 528.239 -297.69 552.022 -314.153 570.371L-700 1000.41" style="--x: 540; --y: 280;"></path><path data-v-d58ae3b9="" data-index="57" d="M211.29 -640L31.2938 -443.145C14.446 -424.719 5.10034 -400.658 5.09397 -375.691L5.00964 -45.3948C5.00342 -21.0424 -3.88896 2.471 -19.999 20.7333L-263.576 296.851C-279.692 315.12 -288.585 338.644 -288.585 363.005L-288.585 503.588C-288.585 528.239 -297.69 552.022 -314.153 570.371L-700 1000.41" style="--x: 555; --y: 285;"></path><path data-v-d58ae3b9="" data-index="58" d="M211.29 -640L31.2938 -443.145C14.446 -424.719 5.10034 -400.658 5.09397 -375.691L5.00964 -45.3948C5.00342 -21.0424 -3.88896 2.471 -19.999 20.7333L-263.576 296.851C-279.692 315.12 -288.585 338.644 -288.585 363.005L-288.585 503.588C-288.585 528.239 -297.69 552.022 -314.153 570.371L-700 1000.41" style="--x: 570; --y: 290;"></path><path data-v-d58ae3b9="" data-index="59" d="M211.29 -640L31.2938 -443.145C14.446 -424.719 5.10034 -400.658 5.09397 -375.691L5.00964 -45.3948C5.00342 -21.0424 -3.88896 2.471 -19.999 20.7333L-263.576 296.851C-279.692 315.12 -288.585 338.644 -288.585 363.005L-288.585 503.588C-288.585 528.239 -297.69 552.022 -314.153 570.371L-700 1000.41" style="--x: 585; --y: 295;" class=""></path><path data-v-d58ae3b9="" data-index="60" d="M211.29 -640L31.2938 -443.145C14.446 -424.719 5.10034 -400.658 5.09397 -375.691L5.00964 -45.3948C5.00342 -21.0424 -3.88896 2.471 -19.999 20.7333L-263.576 296.851C-279.692 315.12 -288.585 338.644 -288.585 363.005L-288.585 503.588C-288.585 528.239 -297.69 552.022 -314.153 570.371L-700 1000.41" style="--x: 600; --y: 300;"></path><path data-v-d58ae3b9="" data-index="61" d="M211.29 -640L31.2938 -443.145C14.446 -424.719 5.10034 -400.658 5.09397 -375.691L5.00964 -45.3948C5.00342 -21.0424 -3.88896 2.471 -19.999 20.7333L-263.576 296.851C-279.692 315.12 -288.585 338.644 -288.585 363.005L-288.585 503.588C-288.585 528.239 -297.69 552.022 -314.153 570.371L-700 1000.41" style="--x: 615; --y: 305;"></path><path data-v-d58ae3b9="" data-index="62" d="M211.29 -640L31.2938 -443.145C14.446 -424.719 5.10034 -400.658 5.09397 -375.691L5.00964 -45.3948C5.00342 -21.0424 -3.88896 2.471 -19.999 20.7333L-263.576 296.851C-279.692 315.12 -288.585 338.644 -288.585 363.005L-288.585 503.588C-288.585 528.239 -297.69 552.022 -314.153 570.371L-700 1000.41" style="--x: 630; --y: 310;"></path><path data-v-d58ae3b9="" data-index="63" d="M211.29 -640L31.2938 -443.145C14.446 -424.719 5.10034 -400.658 5.09397 -375.691L5.00964 -45.3948C5.00342 -21.0424 -3.88896 2.471 -19.999 20.7333L-263.576 296.851C-279.692 315.12 -288.585 338.644 -288.585 363.005L-288.585 503.588C-288.585 528.239 -297.69 552.022 -314.153 570.371L-700 1000.41" style="--x: 645; --y: 315;"></path><path data-v-d58ae3b9="" data-index="64" d="M211.29 -640L31.2938 -443.145C14.446 -424.719 5.10034 -400.658 5.09397 -375.691L5.00964 -45.3948C5.00342 -21.0424 -3.88896 2.471 -19.999 20.7333L-263.576 296.851C-279.692 315.12 -288.585 338.644 -288.585 363.005L-288.585 503.588C-288.585 528.239 -297.69 552.022 -314.153 570.371L-700 1000.41" style="--x: 660; --y: 320;"></path><path data-v-d58ae3b9="" data-index="65" d="M211.29 -640L31.2938 -443.145C14.446 -424.719 5.10034 -400.658 5.09397 -375.691L5.00964 -45.3948C5.00342 -21.0424 -3.88896 2.471 -19.999 20.7333L-263.576 296.851C-279.692 315.12 -288.585 338.644 -288.585 363.005L-288.585 503.588C-288.585 528.239 -297.69 552.022 -314.153 570.371L-700 1000.41" style="--x: 675; --y: 325;"></path><path data-v-d58ae3b9="" data-index="66" d="M211.29 -640L31.2938 -443.145C14.446 -424.719 5.10034 -400.658 5.09397 -375.691L5.00964 -45.3948C5.00342 -21.0424 -3.88896 2.471 -19.999 20.7333L-263.576 296.851C-279.692 315.12 -288.585 338.644 -288.585 363.005L-288.585 503.588C-288.585 528.239 -297.69 552.022 -314.153 570.371L-700 1000.41" style="--x: 690; --y: 330;"></path><path data-v-d58ae3b9="" data-index="67" d="M211.29 -640L31.2938 -443.145C14.446 -424.719 5.10034 -400.658 5.09397 -375.691L5.00964 -45.3948C5.00342 -21.0424 -3.88896 2.471 -19.999 20.7333L-263.576 296.851C-279.692 315.12 -288.585 338.644 -288.585 363.005L-288.585 503.588C-288.585 528.239 -297.69 552.022 -314.153 570.371L-700 1000.41" style="--x: 705; --y: 335;"></path><path data-v-d58ae3b9="" data-index="68" d="M211.29 -640L31.2938 -443.145C14.446 -424.719 5.10034 -400.658 5.09397 -375.691L5.00964 -45.3948C5.00342 -21.0424 -3.88896 2.471 -19.999 20.7333L-263.576 296.851C-279.692 315.12 -288.585 338.644 -288.585 363.005L-288.585 503.588C-288.585 528.239 -297.69 552.022 -314.153 570.371L-700 1000.41" style="--x: 720; --y: 340;"></path><path data-v-d58ae3b9="" data-index="69" d="M211.29 -640L31.2938 -443.145C14.446 -424.719 5.10034 -400.658 5.09397 -375.691L5.00964 -45.3948C5.00342 -21.0424 -3.88896 2.471 -19.999 20.7333L-263.576 296.851C-279.692 315.12 -288.585 338.644 -288.585 363.005L-288.585 503.588C-288.585 528.239 -297.69 552.022 -314.153 570.371L-700 1000.41" style="--x: 735; --y: 345;"></path><path data-v-d58ae3b9="" data-index="70" d="M211.29 -640L31.2938 -443.145C14.446 -424.719 5.10034 -400.658 5.09397 -375.691L5.00964 -45.3948C5.00342 -21.0424 -3.88896 2.471 -19.999 20.7333L-263.576 296.851C-279.692 315.12 -288.585 338.644 -288.585 363.005L-288.585 503.588C-288.585 528.239 -297.69 552.022 -314.153 570.371L-700 1000.41" style="--x: 750; --y: 350;"></path><path data-v-d58ae3b9="" data-index="71" d="M211.29 -640L31.2938 -443.145C14.446 -424.719 5.10034 -400.658 5.09397 -375.691L5.00964 -45.3948C5.00342 -21.0424 -3.88896 2.471 -19.999 20.7333L-263.576 296.851C-279.692 315.12 -288.585 338.644 -288.585 363.005L-288.585 503.588C-288.585 528.239 -297.69 552.022 -314.153 570.371L-700 1000.41" style="--x: 765; --y: 355;"></path><path data-v-d58ae3b9="" data-index="72" d="M211.29 -640L31.2938 -443.145C14.446 -424.719 5.10034 -400.658 5.09397 -375.691L5.00964 -45.3948C5.00342 -21.0424 -3.88896 2.471 -19.999 20.7333L-263.576 296.851C-279.692 315.12 -288.585 338.644 -288.585 363.005L-288.585 503.588C-288.585 528.239 -297.69 552.022 -314.153 570.371L-700 1000.41" style="--x: 780; --y: 360;"></path><path data-v-d58ae3b9="" data-index="73" d="M211.29 -640L31.2938 -443.145C14.446 -424.719 5.10034 -400.658 5.09397 -375.691L5.00964 -45.3948C5.00342 -21.0424 -3.88896 2.471 -19.999 20.7333L-263.576 296.851C-279.692 315.12 -288.585 338.644 -288.585 363.005L-288.585 503.588C-288.585 528.239 -297.69 552.022 -314.153 570.371L-700 1000.41" style="--x: 795; --y: 365;"></path><path data-v-d58ae3b9="" data-index="74" d="M211.29 -640L31.2938 -443.145C14.446 -424.719 5.10034 -400.658 5.09397 -375.691L5.00964 -45.3948C5.00342 -21.0424 -3.88896 2.471 -19.999 20.7333L-263.576 296.851C-279.692 315.12 -288.585 338.644 -288.585 363.005L-288.585 503.588C-288.585 528.239 -297.69 552.022 -314.153 570.371L-700 1000.41" style="--x: 810; --y: 370;"></path><path data-v-d58ae3b9="" data-index="75" d="M211.29 -640L31.2938 -443.145C14.446 -424.719 5.10034 -400.658 5.09397 -375.691L5.00964 -45.3948C5.00342 -21.0424 -3.88896 2.471 -19.999 20.7333L-263.576 296.851C-279.692 315.12 -288.585 338.644 -288.585 363.005L-288.585 503.588C-288.585 528.239 -297.69 552.022 -314.153 570.371L-700 1000.41" style="--x: 825; --y: 375;"></path><path data-v-d58ae3b9="" data-index="76" d="M211.29 -640L31.2938 -443.145C14.446 -424.719 5.10034 -400.658 5.09397 -375.691L5.00964 -45.3948C5.00342 -21.0424 -3.88896 2.471 -19.999 20.7333L-263.576 296.851C-279.692 315.12 -288.585 338.644 -288.585 363.005L-288.585 503.588C-288.585 528.239 -297.69 552.022 -314.153 570.371L-700 1000.41" style="--x: 840; --y: 380;"></path><path data-v-d58ae3b9="" data-index="77" d="M211.29 -640L31.2938 -443.145C14.446 -424.719 5.10034 -400.658 5.09397 -375.691L5.00964 -45.3948C5.00342 -21.0424 -3.88896 2.471 -19.999 20.7333L-263.576 296.851C-279.692 315.12 -288.585 338.644 -288.585 363.005L-288.585 503.588C-288.585 528.239 -297.69 552.022 -314.153 570.371L-700 1000.41" style="--x: 855; --y: 385;"></path><path data-v-d58ae3b9="" data-index="78" d="M211.29 -640L31.2938 -443.145C14.446 -424.719 5.10034 -400.658 5.09397 -375.691L5.00964 -45.3948C5.00342 -21.0424 -3.88896 2.471 -19.999 20.7333L-263.576 296.851C-279.692 315.12 -288.585 338.644 -288.585 363.005L-288.585 503.588C-288.585 528.239 -297.69 552.022 -314.153 570.371L-700 1000.41" style="--x: 870; --y: 390;"></path><path data-v-d58ae3b9="" data-index="79" d="M211.29 -640L31.2938 -443.145C14.446 -424.719 5.10034 -400.658 5.09397 -375.691L5.00964 -45.3948C5.00342 -21.0424 -3.88896 2.471 -19.999 20.7333L-263.576 296.851C-279.692 315.12 -288.585 338.644 -288.585 363.005L-288.585 503.588C-288.585 528.239 -297.69 552.022 -314.153 570.371L-700 1000.41" style="--x: 885; --y: 395;"></path><path data-v-d58ae3b9="" data-index="80" d="M211.29 -640L31.2938 -443.145C14.446 -424.719 5.10034 -400.658 5.09397 -375.691L5.00964 -45.3948C5.00342 -21.0424 -3.88896 2.471 -19.999 20.7333L-263.576 296.851C-279.692 315.12 -288.585 338.644 -288.585 363.005L-288.585 503.588C-288.585 528.239 -297.69 552.022 -314.153 570.371L-700 1000.41" style="--x: 900; --y: 400;"></path><!--]--></svg>