<svg width="380" height="430" viewBox="0 0 380 430" fill="none" xmlns="http://www.w3.org/2000/svg">
<path d="M177.659 52.9759C188.468 46.4649 201.945 46.2765 212.932 52.483L300 101.667L336.667 80L212.868 10.015C201.915 3.82362 188.483 3.98682 177.684 10.4425L0 116.667L36.7716 137.84L177.659 52.9759Z" fill="#7557FF"/>
<path d="M36.8345 179.36L0 158.333V304.224C0 317.157 7.131 329.035 18.5447 335.115L196.667 430V387.947L55.5919 314.037C44.0602 307.995 36.8345 296.053 36.8345 283.034V179.36Z" fill="#7557FF"/>
<path d="M0 158.719L128.853 232.289C139.764 238.519 146.499 250.119 146.499 262.684V305.27C146.499 317.812 153.21 329.395 164.09 335.634L183.333 346.667V241.658C183.333 229.093 176.598 217.493 165.687 211.263L0 116.667V158.719Z" fill="#7557FF"/>
<path d="M289.039 208.996C299.94 202.763 306.667 191.169 306.667 178.612V156.667L214.29 209.5C203.392 215.733 196.667 227.327 196.667 239.882V430L233.583 408.776V261.01C233.583 248.453 240.309 236.859 251.21 230.626L289.039 208.996Z" fill="#7557FF"/>
<path d="M336.324 122.792L342.209 284.401C342.689 297.572 335.729 309.895 324.203 316.285L233.333 366.667V408.917L361.455 337.353C372.851 330.987 379.758 318.809 379.372 305.761L373.333 101.667L336.324 122.792Z" fill="#7557FF"/>
<path d="M336.667 80L207.534 156.039C196.563 162.499 182.95 162.492 171.986 156.022L134.649 133.988C123.677 127.512 110.052 127.511 99.0784 133.984L79.9999 145.238L171.968 199.504C182.942 205.98 196.568 205.979 207.542 199.504L373.333 101.667L336.667 80Z" fill="#7557FF"/>
</svg>
