<svg xmlns="http://www.w3.org/2000/svg" width="25" height="26" viewBox="0 0 25 26" fill="none"><link xmlns="" type="text/css" id="dark-mode" rel="stylesheet" href=""/>
<rect x="-0.00012207" y="0.0859375" width="25" height="25" rx="12.5" fill="#EBEBEB"/>
<path fill-rule="evenodd" clip-rule="evenodd" d="M8.83115 17.6726C8.44081 18.0633 7.80765 18.0636 7.41694 17.6733C7.02622 17.2829 7.02592 16.6498 7.41626 16.2591L11.0863 12.5854L7.41626 8.91184C7.02592 8.52113 7.02622 7.88797 7.41694 7.49763C7.80765 7.1073 8.44081 7.1076 8.83115 7.49831L12.4999 11.1706L16.1686 7.49831C16.5589 7.1076 17.1921 7.1073 17.5828 7.49763C17.9735 7.88797 17.9738 8.52113 17.5835 8.91184L13.9134 12.5854L17.5835 16.2591C17.9738 16.6498 17.9735 17.2829 17.5828 17.6733C17.1921 18.0636 16.5589 18.0633 16.1686 17.6726L12.4999 14.0003L8.83115 17.6726Z" fill="#5A6176"/>
</svg>